# xmcd
#
# Track frame offsets:
# 183
# 17578
# 25768
# 46963
# 58685
# 76203
# 91410
# 107050
# 120313
# 136000
# 154625
# 172420
#
# Disc length: 2500 seconds
#
#
# Revision: 2
# Processed by: cddbd v1.5.2PL0 Copyright (c) Steve Scherf et al.
# Submitted via: FreeRIP 2.945 
#
DISCID=8c09c20c
DTITLE=Tinsley Ellis - Georgia Blue
DYEAR=1988
DGENRE=Electric Blues
TTITLE0=Can't You Lie
TTITLE1=Texas Stomp
TTITLE2=You Picked A Good Time
TTITLE3=I've Made Nights By Myself
TTITLE4=Crime Of Passion
TTITLE5=Hot Potato
TTITLE6=Double Eyed Whammy
TTITLE7=She Wants To Sell My Monkey
TTITLE8=Look-Ka-Py-Py
TTITLE9=As The Years Go Passing By
TTITLE10=Free Man
TTITLE11=Lucky You
EXTD=
EXTT0=
EXTT1=
EXTT2=
EXTT3=
EXTT4=
EXTT5=
EXTT6=
EXTT7=
EXTT8=
EXTT9=
EXTT10=
EXTT11=
PLAYORDER=
